<svg xmlns="http://www.w3.org/2000/svg" viewBox="0 0 96 96" fill="none">
  <rect width="96" height="96" rx="24" fill="#E2E8F0"/>
  <path d="M31 29.5A6.5 6.5 0 0 1 37.5 23h18.379a6.5 6.5 0 0 1 4.596 1.904l8.621 8.621A6.5 6.5 0 0 1 71 38.121V66.5A6.5 6.5 0 0 1 64.5 73h-27A6.5 6.5 0 0 1 31 66.5v-37Z" fill="#F8FAFC"/>
  <path d="M60 23.593V34a4 4 0 0 0 4 4h10.407" stroke="#94A3B8" stroke-width="4" stroke-linecap="round" stroke-linejoin="round"/>
  <path d="M40 51h16" stroke="#0F766E" stroke-width="6" stroke-linecap="round"/>
  <path d="M40 61h21" stroke="#94A3B8" stroke-width="6" stroke-linecap="round"/>
</svg>
